# xmcd CD database file
#
# Track frame offsets:
#	150
#	29015
#	54652
#	78272
#	104400
#	132270
#	134105
#	157662
#	159382
#	184247
#	200110
#	225492
#	227820
#	265067
#
# Disc length: 3852 seconds
#
# Revision: 0
# Processed by: cddbd v1.5.1PL0 Copyright (c) Steve Scherf et al.
# Submitted via: CDex 1.51
#
DISCID=bf0f0a0e
DTITLE=Ellie - Bitch In Zion
DYEAR=1996
DGENRE=R&B
TTITLE0=Doggin' Me
TTITLE1=U Were My Joy
TTITLE2=24hours
TTITLE3=Melt In My Body
TTITLE4=E.L.L.I.E.
TTITLE5=Interlude -
TTITLE6=Bitches In Babylon
TTITLE7=Interlude -
TTITLE8=Groove 4 Lovers
TTITLE9=Kiss U
TTITLE10=I'll Be Anything
TTITLE11=Interlude -
TTITLE12=Merry Go Round
TTITLE13=Sugar Coated Love
EXTD=YEAR: 1996
EXTT0=
EXTT1=
EXTT2=
EXTT3=
EXTT4=
EXTT5=
EXTT6=
EXTT7=
EXTT8=
EXTT9=
EXTT10=
EXTT11=
EXTT12=
EXTT13=
PLAYORDER=
